<?xml version="1.0" encoding="utf-8"?>
<!-- Generator: Adobe Illustrator 16.0.0, SVG Export Plug-In . SVG Version: 6.00 Build 0)  -->
<!DOCTYPE svg PUBLIC "-//W3C//DTD SVG 1.1//EN" "http://www.w3.org/Graphics/SVG/1.1/DTD/svg11.dtd">
<svg version="1.1" id="Layer_1" xmlns="http://www.w3.org/2000/svg" xmlns:xlink="http://www.w3.org/1999/xlink" x="0px" y="0px"
	 width="250px" height="250px" viewBox="0 0 250 250" enable-background="new 0 0 250 250" xml:space="preserve">
<circle fill="#231F20" cx="-89.687" cy="345.351" r="57.667"/>
<circle fill="#ED1C24" cx="-89.687" cy="327.017" r="39.333"/>
<circle fill="#8DC63F" cx="-89.687" cy="341.693" r="24.658"/>
<path fill="none" stroke="#231F20" stroke-width="9" stroke-miterlimit="10" d="M-223.483,86.334h-102.313
	c0,0,7.463,107.911,102.313,107.911c94.849,0,101.991-108.95,101.991-108.95l12.261-26.553l-24.34-10.581
	c0,0-14.264-33.962-66.588-33.962c-79.449,0-73.756,72.134-73.756,72.134s4.03,57.262,50.678,57.262
	c48.233,0,51.292-57.262,51.292-57.262H-223.483z"/>
<g opacity="0.8">
	<path fill="#ED1C24" d="M118.031,224.745c-40.588,0-71.964-19.508-90.737-56.415c-13.977-27.479-15.987-54.547-16.066-55.686
		l-0.333-4.811H63.01c0.164-9.811,2.437-32.433,18.606-49.928C95.234,43.171,115.333,35.7,141.355,35.7
		c48.465,0,66.09,27.663,69.912,35l27.03,11.75l-13.853,30c-0.429,4.99-3.132,29.988-15.827,55.335
		C189.956,205.049,158.631,224.745,118.031,224.745z M20.754,116.834c1.206,8.8,4.819,28.361,14.684,47.654
		c17.392,34.012,45.18,51.257,82.593,51.257c37.401,0,65.132-17.412,82.421-51.753c13.15-26.121,15.062-52.728,15.079-52.994
		l0.056-0.831l10.682-23.133l-21.775-9.465l-0.699-1.665c-0.541-1.256-13.997-31.205-62.438-31.205
		c-23.372,0-41.229,6.478-53.073,19.253c-13.973,15.07-16.041,35.28-16.245,43.881h102.278l-0.254,4.74
		c-0.033,0.621-0.894,15.374-7.986,30.32c-9.688,20.412-26.216,31.201-47.799,31.201c-20.929,0-37.145-10.786-46.892-31.191
		c-4.929-10.317-6.978-20.543-7.786-26.07H20.754z M72.716,116.834c0.854,5.191,2.774,13.865,6.893,22.408
		c8.271,17.155,21.281,25.854,38.667,25.854c18.034,0,31.344-8.692,39.562-25.836c4.103-8.559,5.916-17.25,6.691-22.426H72.716z"/>
</g>
<g opacity="0.8">
	<path fill="#FFF200" d="M112.156,214.93c-40.58-0.806-71.562-20.934-89.599-58.205C9.129,128.974,7.656,101.871,7.6,100.731
		l-0.237-4.816l52.104,1.034c0.358-9.805,3.081-32.378,19.593-49.549c13.908-14.461,34.151-21.532,60.168-21.015
		c48.456,0.962,65.527,28.969,69.204,36.381l26.791,12.284l-14.445,29.719c-0.527,4.98-3.727,29.92-16.922,55.01
		C184.458,196.666,152.748,215.735,112.156,214.93z M17.041,105.109c1.031,8.822,4.255,28.452,13.735,47.937
		c16.713,34.35,44.153,52.143,81.559,52.885c37.395,0.743,65.465-16.115,83.432-50.105c13.666-25.855,16.105-52.419,16.129-52.685
		l0.071-0.829l11.139-22.916l-21.582-9.896l-0.667-1.678c-0.516-1.267-13.374-31.477-61.807-32.438
		c-23.368-0.464-41.349,5.658-53.445,18.196c-14.269,14.79-16.738,34.955-17.113,43.55l102.258,2.03l-0.348,4.734
		c-0.046,0.62-1.199,15.353-8.587,30.156c-10.091,20.217-26.83,30.675-48.409,30.247c-20.925-0.416-36.923-11.522-46.263-32.116
		c-4.723-10.414-6.569-20.678-7.267-26.22L17.041,105.109z M68.992,106.14c0.75,5.208,2.499,13.918,6.447,22.541
		c7.929,17.316,20.763,26.271,38.146,26.616c18.031,0.358,31.511-8.069,40.067-25.045c4.271-8.477,6.257-17.13,7.135-22.289
		L68.992,106.14z"/>
</g>
<g opacity="0.9">
	<path fill="#ED1C24" d="M189.695,450.021c-39.008,0-69.152-18.729-87.175-54.164c-13.197-25.943-15.103-51.604-15.177-52.684
		l-0.674-9.744h48.119c0.882-11.035,4.517-29.273,18.032-43.898c13.4-14.5,32.961-21.852,58.135-21.852
		c43.754,0,61.877,23.76,67.264,32.987l27.801,12.086l-14.416,31.221c-0.631,6.403-3.541,28.772-14.854,51.36
		C258.83,431.112,228.727,450.021,189.695,450.021z M106.908,351.66c1.636,8.92,5.083,22.768,12.1,36.4
		c14.936,29.019,38.718,43.731,70.687,43.731c32.121,0,55.924-15.013,70.754-44.622c11.477-22.914,13.102-45.938,13.115-46.168
		l0.111-1.689l7.977-17.273l-17.092-7.431l-1.301-3.292c-0.732-1.607-12.295-25.407-52.305-25.407
		c-19.811,0-34.83,5.343-44.64,15.88c-9.428,10.127-12.347,23.227-13.208,31.641h93.18l-0.516,9.602
		c-0.029,0.605-0.869,15.012-7.756,29.518c-9.717,20.48-26.352,31.306-48.097,31.306c-21.146,0-37.489-10.818-47.267-31.282
		c-3.671-7.686-5.693-15.34-6.789-20.912H106.908z M154.527,351.66c0.977,3.988,2.48,8.764,4.773,13.463
		c6.729,13.796,16.743,20.502,30.618,20.502c14.61,0,24.958-6.834,31.628-20.891c2.172-4.572,3.57-9.201,4.473-13.074H154.527z"/>
</g>
<g opacity="0.9">
	<path fill="#FFF200" d="M176.695,456.021c-39.008,0-69.152-18.729-87.175-54.164c-13.197-25.943-15.103-51.604-15.177-52.684
		l-0.674-9.744h48.119c0.882-11.035,4.517-29.273,18.032-43.898c13.4-14.5,32.961-21.852,58.135-21.852
		c43.754,0,61.877,23.76,67.264,32.987l27.801,12.086l-14.416,31.221c-0.631,6.403-3.541,28.772-14.854,51.36
		C245.83,437.112,215.727,456.021,176.695,456.021z M93.908,357.66c1.636,8.92,5.083,22.768,12.1,36.4
		c14.936,29.019,38.718,43.731,70.687,43.731c32.121,0,55.924-15.013,70.754-44.622c11.477-22.914,13.102-45.938,13.115-46.168
		l0.111-1.689l7.977-17.273l-17.092-7.431l-1.301-3.292c-0.732-1.607-12.295-25.407-52.305-25.407
		c-19.811,0-34.83,5.343-44.64,15.88c-9.428,10.127-12.347,23.227-13.208,31.641h93.18l-0.516,9.602
		c-0.029,0.605-0.869,15.012-7.756,29.518c-9.717,20.48-26.352,31.306-48.097,31.306c-21.146,0-37.489-10.818-47.267-31.282
		c-3.671-7.686-5.693-15.34-6.789-20.912H93.908z M141.527,357.66c0.977,3.988,2.48,8.764,4.773,13.463
		c6.729,13.796,16.743,20.502,30.618,20.502c14.61,0,24.958-6.834,31.628-20.891c2.172-4.572,3.57-9.201,4.473-13.074H141.527z"/>
</g>
<g opacity="0.9">
	<path fill="#00AEEF" d="M189.695,465.021c-39.008,0-69.152-18.729-87.175-54.164c-13.197-25.943-15.103-51.604-15.177-52.684
		l-0.674-9.744h48.119c0.882-11.035,4.517-29.273,18.032-43.898c13.4-14.5,32.961-21.852,58.135-21.852
		c43.754,0,61.877,23.76,67.264,32.987l27.801,12.086l-14.416,31.221c-0.631,6.403-3.541,28.772-14.854,51.36
		C258.83,446.112,228.727,465.021,189.695,465.021z M106.908,366.66c1.636,8.92,5.083,22.768,12.1,36.4
		c14.936,29.019,38.718,43.731,70.687,43.731c32.121,0,55.924-15.013,70.754-44.622c11.477-22.914,13.102-45.938,13.115-46.168
		l0.111-1.689l7.977-17.273l-17.092-7.431l-1.301-3.292c-0.732-1.607-12.295-25.407-52.305-25.407
		c-19.811,0-34.83,5.343-44.64,15.88c-9.428,10.127-12.347,23.227-13.208,31.641h93.18l-0.516,9.602
		c-0.029,0.605-0.869,15.012-7.756,29.518c-9.717,20.48-26.352,31.306-48.097,31.306c-21.146,0-37.489-10.818-47.267-31.282
		c-3.671-7.686-5.693-15.34-6.789-20.912H106.908z M154.527,366.66c0.977,3.988,2.48,8.764,4.773,13.463
		c6.729,13.796,16.743,20.502,30.618,20.502c14.61,0,24.958-6.834,31.628-20.891c2.172-4.572,3.57-9.201,4.473-13.074H154.527z"/>
</g>
<g opacity="0.8">
	<path fill="#00AEEF" d="M122.396,217.12c-40.586-0.214-71.859-19.887-90.437-56.892c-13.831-27.553-15.699-54.631-15.772-55.77
		l-0.307-4.813l52.114,0.275c0.215-9.809,2.608-32.419,18.869-49.829c13.695-14.663,33.833-22.027,59.855-21.89
		c48.465,0.256,65.943,28.011,69.728,35.37l26.968,11.892l-14.011,29.927c-0.455,4.987-3.29,29.971-16.119,55.25
		C194.425,197.806,162.996,217.336,122.396,217.12z M25.69,108.698c1.16,8.806,4.669,28.386,14.433,47.733
		c17.211,34.103,44.909,51.493,82.32,51.689c37.402,0.198,65.224-17.067,82.693-51.314c13.288-26.053,15.341-52.649,15.359-52.916
		l0.06-0.83l10.804-23.076l-21.725-9.581l-0.691-1.668c-0.534-1.259-13.831-31.278-62.272-31.534
		c-23.372-0.123-41.262,6.261-53.174,18.974C79.445,71.171,77.27,91.369,77.02,99.97l102.277,0.539l-0.278,4.739
		c-0.037,0.62-0.975,15.369-8.146,30.276c-9.795,20.361-26.381,31.063-47.963,30.95c-20.928-0.111-37.087-10.983-46.727-31.439
		c-4.874-10.344-6.869-20.579-7.648-26.111L25.69,108.698z M77.651,108.972c0.826,5.196,2.701,13.88,6.775,22.444
		c8.18,17.198,21.144,25.967,38.53,26.058c18.034,0.097,31.39-8.527,39.698-25.626c4.147-8.539,6.007-17.22,6.809-22.39
		L77.651,108.972z"/>
</g>
<rect y="-19.75" fill="#FFF200" width="19.75" height="19.75"/>
<rect x="19.75" y="-19.75" fill="#00AEEF" width="19.75" height="19.75"/>
<rect x="39.5" y="-19.75" fill="#ED1C24" width="19.75" height="19.75"/>
<rect x="59.25" y="-19.75" fill="#FFFFFF" width="19.75" height="19.75"/>
<rect x="79" y="-19.75" fill="#CCCCCC" width="19.75" height="19.75"/>
</svg>
